<svg width="348" height="348" viewBox="0 0 348 348" fill="none" xmlns="http://www.w3.org/2000/svg">
<rect width="348" height="348" fill="white"/>
<rect x="48" y="48" width="251" height="251" rx="29" fill="url(#paint0_linear)"/>
<path d="M103 127L173 164V249L103 212V127Z" fill="#9DE2B0"/>
<path d="M125 139L147 150.525V177L125 165.475V139Z" fill="#78AF87"/>
<path d="M173 96L244 131L173 164L103 127L173 96Z" fill="#B8F2C8"/>
<path d="M195.5 107L218 118L147 151L125 139.475L195.5 107Z" fill="#87C097"/>
<path d="M244 131L173 164V249L244 216V131Z" fill="#448361"/>
<circle cx="258" cy="265" r="58.5" fill="#438361" stroke="white" stroke-width="15"/>
<path fill-rule="evenodd" clip-rule="evenodd" d="M255.424 264.196C255.419 264.131 255.417 264.066 255.417 264V243.333C255.417 241.907 256.571 240.75 258 240.75C259.429 240.75 260.583 241.907 260.583 243.333V263.999L266.783 259.35C267.925 258.49 269.545 258.725 270.4 259.867C271.258 261.008 271.025 262.628 269.883 263.483L259.55 271.233C259.093 271.577 258.545 271.75 258 271.75C257.481 271.75 256.961 271.592 256.514 271.28L246.181 264.01C245.013 263.189 244.732 261.577 245.553 260.412C246.375 259.244 247.984 258.962 249.152 259.784L255.424 264.196ZM242.5 276.917V279.5H273.5V276.917C273.5 275.496 274.662 274.333 276.083 274.333C277.504 274.333 278.667 275.496 278.667 276.917V282.083C278.667 283.504 277.504 284.667 276.083 284.667H239.917C238.496 284.667 237.333 283.504 237.333 282.083V276.917C237.333 275.496 238.496 274.333 239.917 274.333C241.337 274.333 242.5 275.496 242.5 276.917Z" fill="white"/>
<defs>
<linearGradient id="paint0_linear" x1="104" y1="48" x2="299" y2="313" gradientUnits="userSpaceOnUse">
<stop stop-color="#90D8A4"/>
<stop offset="1" stop-color="#387D60"/>
</linearGradient>
</defs>
</svg>
