<svg width="348" height="348" viewBox="0 0 348 348" fill="none" xmlns="http://www.w3.org/2000/svg">
<rect width="348" height="348" fill="white"/>
<rect x="48" y="48" width="251" height="251" rx="29" fill="url(#paint0_linear)"/>
<path d="M103 127L173 164V249L103 212V127Z" fill="#9DE2B0"/>
<path d="M125 139L147 150.525V177L125 165.475V139Z" fill="#78AF87"/>
<path d="M173 96L244 131L173 164L103 127L173 96Z" fill="#B8F2C8"/>
<path d="M195.5 107L218 118L147 151L125 139.475L195.5 107Z" fill="#87C097"/>
<path d="M244 131L173 164V249L244 216V131Z" fill="#448361"/>
<circle cx="257" cy="270" r="58.5" fill="#438361" stroke="white" stroke-width="15"/>
<path fill-rule="evenodd" clip-rule="evenodd" d="M241 278.969C241 282.557 244.001 285.475 247.688 285.475H287.812C291.499 285.475 294.5 282.557 294.5 278.969V255.991C294.5 252.401 291.499 249.486 287.812 249.486H269.018L262.066 240.982C261.557 240.358 260.795 240 259.995 240H247.688C244.001 240 241 242.916 241 246.503V278.969ZM246.35 278.969V267.432V246.503C246.35 245.866 246.949 245.35 247.688 245.35H258.725L265.68 253.851C266.188 254.474 266.948 254.836 267.75 254.836H287.812C288.551 254.836 289.15 255.352 289.15 255.991V278.969C289.15 279.606 288.551 280.125 287.812 280.125H247.688C246.949 280.125 246.35 279.606 246.35 278.969Z" fill="white"/>
<path d="M255.5 257.071C265 260.071 283 252.972 283 265.071C283 270.071 287 297.571 276 301.071C259.189 311.566 220 300.25 220 288.071C220 268.189 220.312 247.472 235.5 247.472C250.688 247.472 246 246.071 255.5 257.071Z" fill="#438361"/>
<path fill-rule="evenodd" clip-rule="evenodd" d="M226 289.969C226 293.557 229.001 296.475 232.688 296.475H272.812C276.499 296.475 279.5 293.557 279.5 289.969V266.991C279.5 263.401 276.499 260.486 272.812 260.486H254.018L247.066 251.982C246.557 251.358 245.795 251 244.995 251H232.688C229.001 251 226 253.916 226 257.503V289.969ZM231.35 289.969V278.432V257.503C231.35 256.866 231.949 256.35 232.688 256.35H243.725L250.68 264.851C251.188 265.474 251.948 265.836 252.75 265.836H272.812C273.551 265.836 274.15 266.352 274.15 266.991V289.969C274.15 290.606 273.551 291.125 272.812 291.125H232.688C231.949 291.125 231.35 290.606 231.35 289.969Z" fill="white"/>
<defs>
<linearGradient id="paint0_linear" x1="104" y1="48" x2="299" y2="313" gradientUnits="userSpaceOnUse">
<stop stop-color="#90D8A4"/>
<stop offset="1" stop-color="#387D60"/>
</linearGradient>
</defs>
</svg>
